<?xml version="1.0" encoding="UTF-8"?>
<!DOCTYPE svg PUBLIC "-//W3C//DTD SVG 1.1//EN" "http://www.w3.org/Graphics/SVG/1.1/DTD/svg11.dtd">
<svg xmlns="http://www.w3.org/2000/svg" version="1.1" width="512px" height="512px" style="shape-rendering:geometricPrecision; text-rendering:geometricPrecision; image-rendering:optimizeQuality; fill-rule:evenodd; clip-rule:evenodd" xmlns:xlink="http://www.w3.org/1999/xlink">
<g><path style="opacity:0.267" fill="#4a3f57" d="M 249.5,20.5 C 242.341,18.6555 235.008,17.9888 227.5,18.5C 228.263,17.7321 229.263,17.2321 230.5,17C 234.833,16.3333 239.167,16.3333 243.5,17C 246.025,17.4238 248.025,18.5905 249.5,20.5 Z"/></g>
<g><path style="opacity:0.537" fill="#65586c" d="M 156.5,24.5 C 152.02,22.056 147.353,19.8893 142.5,18C 137.053,17.3645 131.72,17.8645 126.5,19.5C 135.61,15.2104 144.61,15.7104 153.5,21C 154.71,22.0391 155.71,23.2058 156.5,24.5 Z"/></g>
<g><path style="opacity:0.047" fill="#776780" d="M 249.5,20.5 C 253.5,22.5 256.5,25.5 258.5,29.5C 255.167,26.8333 252.167,23.8333 249.5,20.5 Z"/></g>
<g><path style="opacity:0.063" fill="#907c8a" d="M 126.5,19.5 C 118.241,25.0134 113.241,32.6801 111.5,42.5C 110.833,42.5 110.167,42.5 109.5,42.5C 110.733,34.0884 114.733,27.255 121.5,22C 123.078,20.9055 124.745,20.0722 126.5,19.5 Z"/></g>
<g><path style="opacity:0.039" fill="#87758d" d="M 259.5,31.5 C 261.837,33.9647 263.337,36.9647 264,40.5C 265.967,47.8687 267.134,55.3687 267.5,63C 266.8,74.3282 265.134,85.4948 262.5,96.5C 261.007,95.6879 260.34,94.3545 260.5,92.5C 266.658,74.5414 266.991,56.5414 261.5,38.5C 261.122,36.079 260.455,33.7457 259.5,31.5 Z"/></g>
<g><path style="opacity:0.033" fill="#69536c" d="M 109.5,42.5 C 110.167,42.5 110.833,42.5 111.5,42.5C 111.5,48.8333 111.5,55.1667 111.5,61.5C 110.833,61.1667 110.167,60.8333 109.5,60.5C 108.274,54.5213 108.274,48.5213 109.5,42.5 Z"/></g>
<g><path style="opacity:1" fill="#241f5a" d="M 261.5,38.5 C 266.991,56.5414 266.658,74.5414 260.5,92.5C 260.34,94.3545 261.007,95.6879 262.5,96.5C 262.5,97.1667 262.5,97.8333 262.5,98.5C 261.167,98.5 259.833,98.5 258.5,98.5C 258.288,102.315 257.622,102.315 256.5,98.5C 259.118,91.2594 258.618,90.9261 255,97.5C 254.779,94.0957 255.279,90.7623 256.5,87.5C 256.154,86.3044 255.654,86.3044 255,87.5C 254.506,85.8659 254.34,84.1992 254.5,82.5C 255.833,82.5 257.167,82.5 258.5,82.5C 258.215,84.288 258.548,85.9547 259.5,87.5C 260.91,85.0508 260.576,82.8841 258.5,81C 259.071,79.7949 259.738,78.6283 260.5,77.5C 261.842,78.9023 262.676,78.5689 263,76.5C 263.667,69.8333 263.667,63.1667 263,56.5C 262.667,56.8333 262.333,57.1667 262,57.5C 261.667,56.1667 261.333,54.8333 261,53.5C 261.072,59.4798 261.239,65.4798 261.5,71.5C 260.5,71.5 259.5,71.5 258.5,71.5C 258.704,65.2397 258.037,59.0731 256.5,53C 257.541,50.0527 258.874,47.2193 260.5,44.5C 261.466,42.604 261.799,40.604 261.5,38.5 Z"/></g>
<g><path style="opacity:0.031" fill="#978694" d="M 109.5,60.5 C 110.167,60.8333 110.833,61.1667 111.5,61.5C 113.679,72.7257 117.013,83.559 121.5,94C 121.022,95.6424 120.022,96.8091 118.5,97.5C 118.511,95.9826 119.177,94.8159 120.5,94C 115.182,83.7496 111.515,72.583 109.5,60.5 Z"/></g>
<g><path style="opacity:0.294" fill="#9e8ca4" d="M 262.5,96.5 C 264.914,97.9108 266.581,99.9108 267.5,102.5C 265.833,101.167 264.167,99.8333 262.5,98.5C 262.5,97.8333 262.5,97.1667 262.5,96.5 Z"/></g>
<g><path style="opacity:0.247" fill="#9c8c9c" d="M 267.5,102.5 C 271.362,105.55 273.695,109.55 274.5,114.5C 273.542,114.047 272.708,113.381 272,112.5C 270.768,109.037 269.268,105.703 267.5,102.5 Z"/></g>
<g><path style="opacity:1" fill="#fafafb" d="M 166.5,86.5 C 167.167,86.5 167.833,86.5 168.5,86.5C 175.876,86.2743 183.209,86.6076 190.5,87.5C 191.752,89.3388 191.752,91.1722 190.5,93C 173.755,90.2618 159.089,94.2618 146.5,105C 143.538,107.781 141.204,110.948 139.5,114.5C 136.835,116.835 135.502,119.835 135.5,123.5C 163.167,123.5 190.833,123.5 218.5,123.5C 219.117,123.611 219.617,123.944 220,124.5C 220.667,140.167 220.667,155.833 220,171.5C 218.457,179.004 214.957,185.337 209.5,190.5C 206.726,191.723 204.059,193.223 201.5,195C 197.855,195.995 194.188,196.828 190.5,197.5C 180.833,197.5 171.167,197.5 161.5,197.5C 161.5,259.5 161.5,321.5 161.5,383.5C 159.5,383.5 157.5,383.5 155.5,383.5C 155.832,321.331 155.499,259.331 154.5,197.5C 145.689,197.961 137.022,197.294 128.5,195.5C 126.833,194.833 125.167,194.167 123.5,193.5C 115.25,185.992 111.75,176.659 113,165.5C 113.806,162.554 115.139,159.888 117,157.5C 120.731,152.666 124.898,148.332 129.5,144.5C 129.991,133.879 130.991,123.212 132.5,112.5C 132.709,111.078 133.209,109.745 134,108.5C 137.002,104.666 140.169,101 143.5,97.5C 145.191,96.1363 146.858,94.803 148.5,93.5C 150.517,92.4706 152.517,91.4706 154.5,90.5C 158.915,90.1394 162.915,88.8061 166.5,86.5 Z"/></g>
<g><path style="opacity:1" fill="#201c60" d="M 156.5,24.5 C 157.08,26.7488 158.413,28.4154 160.5,29.5C 165.795,39.7295 171.462,49.7295 177.5,59.5C 177.65,65.2764 180.65,67.6098 186.5,66.5C 188.833,66.3333 191.167,66.1667 193.5,66C 194.056,65.6174 194.389,65.1174 194.5,64.5C 197.358,60.1168 199.692,55.4501 201.5,50.5C 206.582,44.011 210.915,37.011 214.5,29.5C 218.565,25.4283 222.898,21.7617 227.5,18.5C 235.008,17.9888 242.341,18.6555 249.5,20.5C 252.167,23.8333 255.167,26.8333 258.5,29.5C 259.338,29.8417 259.672,30.5084 259.5,31.5C 260.455,33.7457 261.122,36.079 261.5,38.5C 261.799,40.604 261.466,42.604 260.5,44.5C 258.874,47.2193 257.541,50.0527 256.5,53C 258.037,59.0731 258.704,65.2397 258.5,71.5C 259.5,71.5 260.5,71.5 261.5,71.5C 261.239,65.4798 261.072,59.4798 261,53.5C 261.333,54.8333 261.667,56.1667 262,57.5C 262.333,57.1667 262.667,56.8333 263,56.5C 263.667,63.1667 263.667,69.8333 263,76.5C 262.676,78.5689 261.842,78.9023 260.5,77.5C 259.738,78.6283 259.071,79.7949 258.5,81C 260.576,82.8841 260.91,85.0508 259.5,87.5C 258.548,85.9547 258.215,84.288 258.5,82.5C 257.167,82.5 255.833,82.5 254.5,82.5C 254.34,84.1992 254.506,85.8659 255,87.5C 255.654,86.3044 256.154,86.3044 256.5,87.5C 255.279,90.7623 254.779,94.0957 255,97.5C 258.618,90.9261 259.118,91.2594 256.5,98.5C 257.622,102.315 258.288,102.315 258.5,98.5C 259.833,98.5 261.167,98.5 262.5,98.5C 262.002,101.01 261.336,103.51 260.5,106C 260.667,107.167 260.833,108.333 261,109.5C 261.219,108.062 261.719,106.729 262.5,105.5C 263.675,108.471 263.342,111.304 261.5,114C 263.641,115.891 265.974,116.391 268.5,115.5C 270.246,122.871 271.913,130.205 273.5,137.5C 275.5,137.5 277.5,137.5 279.5,137.5C 279.667,167.169 279.5,196.835 279,226.5C 277.7,218.999 277.033,211.332 277,203.5C 276.503,205.81 276.337,208.143 276.5,210.5C 275.5,210.5 274.5,210.5 273.5,210.5C 273.461,215.944 274.127,221.277 275.5,226.5C 274.167,226.5 272.833,226.5 271.5,226.5C 271.5,229.833 271.5,233.167 271.5,236.5C 270.178,236.33 269.011,236.663 268,237.5C 267.654,244.452 267.488,251.285 267.5,258C 275.421,260.029 275.088,261.529 266.5,262.5C 267.77,263.288 268.77,264.288 269.5,265.5C 267.833,265.5 266.167,265.5 264.5,265.5C 263.833,264.5 263.167,263.5 262.5,262.5C 262.667,219.165 262.5,175.832 262,132.5C 260.201,129.062 258.368,125.729 256.5,122.5C 254.375,119.419 252.542,116.086 251,112.5C 246.266,107.274 241.766,101.941 237.5,96.5C 241.745,88.7986 244.412,80.4653 245.5,71.5C 246.165,68.6862 246.498,65.6862 246.5,62.5C 246.608,57.2553 245.942,52.2553 244.5,47.5C 243.833,47.5 243.5,47.1667 243.5,46.5C 243.438,42.48 241.771,39.48 238.5,37.5C 237.054,36.3871 235.387,36.2204 233.5,37C 232,38.5 230.5,40 229,41.5C 221.664,53.8406 215.164,66.5072 209.5,79.5C 207.5,80.976 205.833,82.8094 204.5,85C 202.735,85.6397 201.068,85.4731 199.5,84.5C 189.013,83.5056 178.346,83.1722 167.5,83.5C 167.622,80.7426 166.455,78.7426 164,77.5C 164.109,72.1458 161.943,68.1458 157.5,65.5C 152.979,56.6088 148.645,47.6088 144.5,38.5C 142.833,38.5 141.167,38.5 139.5,38.5C 139.5,37.8333 139.5,37.1667 139.5,36.5C 136.713,35.5233 133.713,35.19 130.5,35.5C 128.806,40.4485 127.806,45.6152 127.5,51C 128.95,59.8389 130.284,68.6722 131.5,77.5C 135.109,77.775 137.109,79.775 137.5,83.5C 136.559,83.4895 135.892,83.9895 135.5,85C 137.429,86.6942 138.429,88.8609 138.5,91.5C 139.5,91.5 140.5,91.5 141.5,91.5C 142.363,93.4214 143.029,95.4214 143.5,97.5C 140.169,101 137.002,104.666 134,108.5C 133.209,109.745 132.709,111.078 132.5,112.5C 130.132,114.956 129.132,117.956 129.5,121.5C 128.508,129.325 127.841,137.325 127.5,145.5C 126.5,145.5 125.5,145.5 124.5,145.5C 124.719,146.675 124.386,147.675 123.5,148.5C 117.518,152.983 112.351,158.316 108,164.5C 107.257,166.441 107.424,168.274 108.5,170C 107.643,170.689 106.977,171.522 106.5,172.5C 107.423,175.245 108.423,177.912 109.5,180.5C 107.975,184.252 106.975,188.252 106.5,192.5C 104.588,194.156 102.588,194.489 100.5,193.5C 95.4876,183.386 94.1543,172.719 96.5,161.5C 98.2624,161.643 99.9291,161.309 101.5,160.5C 102.167,161.167 102.833,161.833 103.5,162.5C 103.833,162.167 104.167,161.833 104.5,161.5C 103.407,159.651 102.074,157.984 100.5,156.5C 103.366,155.792 106.2,155.125 109,154.5C 108.993,150.99 107.326,149.99 104,151.5C 103.727,149.899 103.227,148.399 102.5,147C 104.677,145.485 106.844,143.985 109,142.5C 110.767,143.34 112.101,144.673 113,146.5C 111.912,137.925 111.412,129.258 111.5,120.5C 111.824,112.202 114.157,104.535 118.5,97.5C 120.022,96.8091 121.022,95.6424 121.5,94C 117.013,83.559 113.679,72.7257 111.5,61.5C 111.5,55.1667 111.5,48.8333 111.5,42.5C 113.241,32.6801 118.241,25.0134 126.5,19.5C 131.72,17.8645 137.053,17.3645 142.5,18C 147.353,19.8893 152.02,22.056 156.5,24.5 Z"/></g>
<g><path style="opacity:1" fill="#8c70e9" d="M 147.5,88.5 C 147.833,88.5 148.167,88.5 148.5,88.5C 148.833,88.5 149.167,88.5 149.5,88.5C 148.524,89.8149 147.524,91.1482 146.5,92.5C 146.957,93.2975 147.624,93.6309 148.5,93.5C 146.858,94.803 145.191,96.1363 143.5,97.5C 143.029,95.4214 142.363,93.4214 141.5,91.5C 144.313,91.9754 146.313,90.9754 147.5,88.5 Z"/></g>
<g><path style="opacity:1" fill="#ccbbf5" d="M 165.5,86.5 C 165.833,86.5 166.167,86.5 166.5,86.5C 162.915,88.8061 158.915,90.1394 154.5,90.5C 157.95,88.7922 161.617,87.4588 165.5,86.5 Z"/></g>
<g><path style="opacity:1" fill="#b8a6fb" d="M 168.5,86.5 C 174.987,85.346 181.654,85.1794 188.5,86C 189.416,86.2784 190.082,86.7784 190.5,87.5C 183.209,86.6076 175.876,86.2743 168.5,86.5 Z"/></g>
<g><path style="opacity:1" fill="#e53ccb" d="M 243.5,46.5 C 243.5,47.1667 243.833,47.5 244.5,47.5C 245.166,55.4827 245.499,63.4827 245.5,71.5C 244.412,80.4653 241.745,88.7986 237.5,96.5C 236.5,96.5 235.5,96.5 234.5,96.5C 234.719,95.325 234.386,94.325 233.5,93.5C 230.693,91.3312 227.693,89.6645 224.5,88.5C 223.833,88.5 223.5,88.1667 223.5,87.5C 224.833,87.5 226.167,87.5 227.5,87.5C 227.993,85.1944 228.326,82.861 228.5,80.5C 229.5,80.5 230.5,80.5 231.5,80.5C 231.575,77.7938 231.908,75.1272 232.5,72.5C 236.192,64.5594 237.192,56.226 235.5,47.5C 237.6,47.5228 239.433,46.8561 241,45.5C 241.902,45.7432 242.735,46.0766 243.5,46.5 Z"/></g>
<g><path style="opacity:1" fill="#f54c99" d="M 228.5,80.5 C 228.326,82.861 227.993,85.1944 227.5,87.5C 226.167,87.5 224.833,87.5 223.5,87.5C 222.833,87.5 222.5,87.1667 222.5,86.5C 223.5,86.5 224.5,86.5 225.5,86.5C 225.654,84.0301 226.654,82.0301 228.5,80.5 Z"/></g>
<g><path style="opacity:1" fill="#331f88" d="M 157.5,65.5 C 161.943,68.1458 164.109,72.1458 164,77.5C 166.455,78.7426 167.622,80.7426 167.5,83.5C 178.346,83.1722 189.013,83.5056 199.5,84.5C 188.5,84.5 177.5,84.5 166.5,84.5C 165.542,84.0472 164.708,83.3805 164,82.5C 163.037,76.6177 160.871,71.2844 157.5,66.5C 157.5,66.1667 157.5,65.8333 157.5,65.5 Z"/></g>
<g><path style="opacity:1" fill="#793cf5" d="M 157.5,66.5 C 160.871,71.2844 163.037,76.6177 164,82.5C 164.708,83.3805 165.542,84.0472 166.5,84.5C 166.167,85.1667 165.833,85.8333 165.5,86.5C 161.617,87.4588 157.95,88.7922 154.5,90.5C 152.517,91.4706 150.517,92.4706 148.5,93.5C 147.624,93.6309 146.957,93.2975 146.5,92.5C 147.524,91.1482 148.524,89.8149 149.5,88.5C 152.626,87.7713 155.293,86.2713 157.5,84C 155.451,79.6211 153.451,75.4544 151.5,71.5C 150.992,68.8239 150.825,66.1572 151,63.5C 152.353,64.6853 153.52,66.0186 154.5,67.5C 155.417,66.8728 156.417,66.5394 157.5,66.5 Z"/></g>
<g><path style="opacity:1" fill="#f7469c" d="M 232.5,72.5 C 231.908,75.1272 231.575,77.7938 231.5,80.5C 230.5,80.5 229.5,80.5 228.5,80.5C 229.326,77.5152 230.659,74.8485 232.5,72.5 Z"/></g>
<g><path style="opacity:1" fill="#f5849d" d="M 151.5,71.5 C 153.451,75.4544 155.451,79.6211 157.5,84C 155.293,86.2713 152.626,87.7713 149.5,88.5C 149.167,88.5 148.833,88.5 148.5,88.5C 148.5,87.5 148.5,86.5 148.5,85.5C 153.161,86.1679 155.161,84.1679 154.5,79.5C 153.5,79.5 152.5,79.5 151.5,79.5C 151.5,76.8333 151.5,74.1667 151.5,71.5 Z"/></g>
<g><path style="opacity:1" fill="#feaa8b" d="M 235.5,47.5 C 237.192,56.226 236.192,64.5594 232.5,72.5C 230.659,74.8485 229.326,77.5152 228.5,80.5C 226.654,82.0301 225.654,84.0301 225.5,86.5C 224.5,86.5 223.5,86.5 222.5,86.5C 219.79,84.7678 217.124,83.1011 214.5,81.5C 221.074,70.6907 227.408,59.6907 233.5,48.5C 233.957,47.7025 234.624,47.3691 235.5,47.5 Z"/></g>
<g><path style="opacity:1" fill="#feac8a" d="M 137.5,46.5 C 138.167,47.5 138.833,48.5 139.5,49.5C 139.343,50.8734 139.51,52.2068 140,53.5C 142.055,54.672 142.722,56.3386 142,58.5C 141.586,58.0426 141.086,57.7093 140.5,57.5C 139.417,58.365 139.251,59.365 140,60.5C 143.694,63.2162 145.861,66.8828 146.5,71.5C 147.281,70.2713 147.781,68.938 148,67.5C 148.383,68.056 148.883,68.3893 149.5,68.5C 150.167,69.5 150.833,70.5 151.5,71.5C 151.5,74.1667 151.5,76.8333 151.5,79.5C 152.5,79.5 153.5,79.5 154.5,79.5C 155.161,84.1679 153.161,86.1679 148.5,85.5C 148.5,86.5 148.5,87.5 148.5,88.5C 148.167,88.5 147.833,88.5 147.5,88.5C 144.117,78.519 140.617,68.519 137,58.5C 136.188,54.3112 136.355,50.3112 137.5,46.5 Z"/></g>
<g><path style="opacity:1" fill="#f1f2f3" d="M 238.5,37.5 C 236.92,40.6592 235.92,43.9925 235.5,47.5C 234.624,47.3691 233.957,47.7025 233.5,48.5C 227.408,59.6907 221.074,70.6907 214.5,81.5C 212.833,80.8333 211.167,80.1667 209.5,79.5C 215.164,66.5072 221.664,53.8406 229,41.5C 230.5,40 232,38.5 233.5,37C 235.387,36.2204 237.054,36.3871 238.5,37.5 Z"/></g>
<g><path style="opacity:0.108" fill="#6a576d" d="M 177.5,59.5 C 178.391,60.2613 179.058,61.2613 179.5,62.5C 184.12,63.4933 188.786,63.8266 193.5,63.5C 193.5,64.1667 193.833,64.5 194.5,64.5C 194.389,65.1174 194.056,65.6174 193.5,66C 191.167,66.1667 188.833,66.3333 186.5,66.5C 180.65,67.6098 177.65,65.2764 177.5,59.5 Z"/></g>
<g><path style="opacity:1" fill="#7a2f91" d="M 244.5,47.5 C 245.942,52.2553 246.608,57.2553 246.5,62.5C 246.498,65.6862 246.165,68.6862 245.5,71.5C 245.499,63.4827 245.166,55.4827 244.5,47.5 Z"/></g>
<g><path style="opacity:0.133" fill="#9c8694" d="M 201.5,50.5 C 199.692,55.4501 197.358,60.1168 194.5,64.5C 193.833,64.5 193.5,64.1667 193.5,63.5C 195.93,58.9634 198.597,54.6301 201.5,50.5 Z"/></g>
<g><path style="opacity:1" fill="#fc9e90" d="M 139.5,49.5 C 143.07,55.6362 146.403,61.9695 149.5,68.5C 148.883,68.3893 148.383,68.056 148,67.5C 147.781,68.938 147.281,70.2713 146.5,71.5C 145.861,66.8828 143.694,63.2162 140,60.5C 139.251,59.365 139.417,58.365 140.5,57.5C 141.086,57.7093 141.586,58.0426 142,58.5C 142.722,56.3386 142.055,54.672 140,53.5C 139.51,52.2068 139.343,50.8734 139.5,49.5 Z"/></g>
<g><path style="opacity:1" fill="#232155" d="M 139.5,36.5 C 136.348,35.9586 133.848,36.9586 132,39.5C 130.107,43.0901 129.273,46.9235 129.5,51C 131.886,65.0561 135.886,78.5561 141.5,91.5C 140.5,91.5 139.5,91.5 138.5,91.5C 138.429,88.8609 137.429,86.6942 135.5,85C 135.892,83.9895 136.559,83.4895 137.5,83.5C 137.109,79.775 135.109,77.775 131.5,77.5C 130.284,68.6722 128.95,59.8389 127.5,51C 127.806,45.6152 128.806,40.4485 130.5,35.5C 133.713,35.19 136.713,35.5233 139.5,36.5 Z"/></g>
<g><path style="opacity:0.102" fill="#9c8a9e" d="M 160.5,29.5 C 164.048,32.9059 166.882,36.9059 169,41.5C 171.572,47.6427 174.405,53.6427 177.5,59.5C 171.462,49.7295 165.795,39.7295 160.5,29.5 Z"/></g>
<g><path style="opacity:1" fill="#7d38e7" d="M 139.5,38.5 C 141.167,38.5 142.833,38.5 144.5,38.5C 148.645,47.6088 152.979,56.6088 157.5,65.5C 157.5,65.8333 157.5,66.1667 157.5,66.5C 156.417,66.5394 155.417,66.8728 154.5,67.5C 153.52,66.0186 152.353,64.6853 151,63.5C 150.825,66.1572 150.992,68.8239 151.5,71.5C 150.833,70.5 150.167,69.5 149.5,68.5C 146.403,61.9695 143.07,55.6362 139.5,49.5C 138.833,48.5 138.167,47.5 137.5,46.5C 137.693,43.6915 138.36,41.0248 139.5,38.5 Z"/></g>
<g><path style="opacity:1" fill="#7947e3" d="M 238.5,37.5 C 241.771,39.48 243.438,42.48 243.5,46.5C 242.735,46.0766 241.902,45.7432 241,45.5C 239.433,46.8561 237.6,47.5228 235.5,47.5C 235.92,43.9925 236.92,40.6592 238.5,37.5 Z"/></g>
<g><path style="opacity:1" fill="#f3f1f1" d="M 139.5,36.5 C 139.5,37.1667 139.5,37.8333 139.5,38.5C 138.36,41.0248 137.693,43.6915 137.5,46.5C 136.355,50.3112 136.188,54.3112 137,58.5C 140.617,68.519 144.117,78.519 147.5,88.5C 146.313,90.9754 144.313,91.9754 141.5,91.5C 135.886,78.5561 131.886,65.0561 129.5,51C 129.273,46.9235 130.107,43.0901 132,39.5C 133.848,36.9586 136.348,35.9586 139.5,36.5 Z"/></g>
<g><path style="opacity:0.306" fill="#908090" d="M 214.5,29.5 C 210.915,37.011 206.582,44.011 201.5,50.5C 204.584,42.6535 208.917,35.6535 214.5,29.5 Z"/></g>
<g><path style="opacity:0.612" fill="#886d86" d="M 156.5,24.5 C 158.587,25.5846 159.92,27.2512 160.5,29.5C 158.413,28.4154 157.08,26.7488 156.5,24.5 Z"/></g>
<g><path style="opacity:0.345" fill="#6d5d6e" d="M 227.5,18.5 C 222.898,21.7617 218.565,25.4283 214.5,29.5C 217.291,24.0451 221.624,20.3784 227.5,18.5 Z"/></g>
<g><path style="opacity:0.616" fill="#796579" d="M 118.5,97.5 C 114.157,104.535 111.824,112.202 111.5,120.5C 111.119,124.119 110.119,127.452 108.5,130.5C 108.139,123.027 108.972,115.694 111,108.5C 113.029,104.42 115.529,100.754 118.5,97.5 Z"/></g>
<g><path style="opacity:0.639" fill="#7e7089" d="M 274.5,114.5 C 277.585,119.353 279.585,124.686 280.5,130.5C 277.924,125.445 275.924,120.112 274.5,114.5 Z"/></g>
<g><path style="opacity:1" fill="#a385ec" d="M 139.5,114.5 C 139.204,117.263 138.204,119.763 136.5,122C 164.003,122.168 191.336,122.668 218.5,123.5C 190.833,123.5 163.167,123.5 135.5,123.5C 135.502,119.835 136.835,116.835 139.5,114.5 Z"/></g>
<g><path style="opacity:1" fill="#a7a9b7" d="M 132.5,112.5 C 130.991,123.212 129.991,133.879 129.5,144.5C 129.5,136.833 129.5,129.167 129.5,121.5C 129.132,117.956 130.132,114.956 132.5,112.5 Z"/></g>
<g><path style="opacity:0.984" fill="#302576" d="M 108.5,130.5 C 108.664,133.187 108.497,135.854 108,138.5C 105.6,140.729 103.433,143.063 101.5,145.5C 64.9879,143.499 38.1546,158.499 21,190.5C 18.193,196.921 16.193,203.588 15,210.5C 14.5001,229.497 14.3334,248.497 14.5,267.5C 14.5,284.833 14.5,302.167 14.5,319.5C 14.5,325.833 14.5,332.167 14.5,338.5C 14.5,355.833 14.5,373.167 14.5,390.5C 14.5,400.833 14.5,411.167 14.5,421.5C 13.2604,440.55 17.9271,457.884 28.5,473.5C 40.8668,491.325 57.8668,502.158 79.5,506C 98.1637,506.5 116.83,506.667 135.5,506.5C 142.167,506.5 148.833,506.5 155.5,506.5C 155.5,505.5 155.5,504.5 155.5,503.5C 156.404,504.209 156.737,505.209 156.5,506.5C 158.5,506.5 160.5,506.5 162.5,506.5C 192.167,506.5 221.833,506.5 251.5,506.5C 259.5,506.5 267.5,506.5 275.5,506.5C 275.5,481.5 275.5,456.5 275.5,431.5C 276.498,456.328 276.831,481.328 276.5,506.5C 282.167,506.5 287.833,506.5 293.5,506.5C 293.833,506.5 294.167,506.5 294.5,506.5C 294.833,506.5 295.167,506.5 295.5,506.5C 324.167,506.5 352.833,506.5 381.5,506.5C 381.833,506.5 382.167,506.5 382.5,506.5C 382.833,506.5 383.167,506.5 383.5,506.5C 389.167,506.5 394.833,506.5 400.5,506.5C 400.833,506.5 401.167,506.5 401.5,506.5C 401.833,506.5 402.167,506.5 402.5,506.5C 406.167,506.5 409.833,506.5 413.5,506.5C 424.148,507.192 434.481,505.859 444.5,502.5C 445.497,480.006 445.831,457.339 445.5,434.5C 432.833,434.5 420.167,434.5 407.5,434.5C 407.5,434.167 407.5,433.833 407.5,433.5C 408.338,433.158 408.672,432.492 408.5,431.5C 421.167,431.5 433.833,431.5 446.5,431.5C 447.713,433.892 448.379,436.559 448.5,439.5C 447.252,460.166 447.252,480.832 448.5,501.5C 449.167,483.167 449.833,464.833 450.5,446.5C 451.5,464.154 451.833,481.821 451.5,499.5C 454.265,499.202 456.765,498.202 459,496.5C 459.633,474.81 460.467,453.477 461.5,432.5C 462.167,452.996 462.833,473.329 463.5,493.5C 464.5,493.167 465.167,492.5 465.5,491.5C 466.492,491.672 467.158,491.338 467.5,490.5C 468.167,490.5 468.5,490.167 468.5,489.5C 469.5,488.833 470.5,488.167 471.5,487.5C 484.127,476.259 492.127,462.259 495.5,445.5C 496.302,444.048 496.802,442.382 497,440.5C 497.5,386.834 497.667,333.168 497.5,279.5C 497.5,271.833 497.5,264.167 497.5,256.5C 497.5,255.5 497.5,254.5 497.5,253.5C 498.054,247.605 497.388,241.938 495.5,236.5C 496.612,235.735 497.279,234.735 497.5,233.5C 500.144,197.377 485.811,170.544 454.5,153C 447.071,149.893 439.404,147.559 431.5,146C 381.501,145.5 331.501,145.333 281.5,145.5C 281.587,140.463 281.254,135.463 280.5,130.5C 331.834,130.333 383.168,130.5 434.5,131C 475.124,138.793 500.791,162.626 511.5,202.5C 511.5,284.833 511.5,367.167 511.5,449.5C 504.528,476.785 488.862,497.451 464.5,511.5C 325.5,511.5 186.5,511.5 47.5,511.5C 21.0069,496.325 5.00692,473.659 -0.5,443.5C -0.5,365.167 -0.5,286.833 -0.5,208.5C 7.48321,168.014 31.4832,142.514 71.5,132C 83.7865,130.63 96.1198,130.13 108.5,130.5 Z"/></g>
<g><path style="opacity:1" fill="#1f1c5f" d="M 201.5,154.5 C 195.898,157.014 192.231,155.347 190.5,149.5C 190.5,147.167 190.5,144.833 190.5,142.5C 192.816,140.94 195.316,139.606 198,138.5C 199.436,138.559 200.769,138.892 202,139.5C 203.338,142.318 204.838,144.985 206.5,147.5C 205.014,150.042 203.347,152.376 201.5,154.5 Z"/></g>
<g><path style="opacity:1" fill="#2e2c57" d="M 201.5,154.5 C 203.347,152.376 205.014,150.042 206.5,147.5C 204.838,144.985 203.338,142.318 202,139.5C 200.769,138.892 199.436,138.559 198,138.5C 195.316,139.606 192.816,140.94 190.5,142.5C 190.5,144.833 190.5,147.167 190.5,149.5C 188.477,140.676 192.143,136.509 201.5,137C 208.853,140.482 210.353,145.649 206,152.5C 204.67,153.582 203.17,154.249 201.5,154.5 Z"/></g>
<g><path style="opacity:1" fill="#fefdfe" d="M 101.5,145.5 C 99.7328,147.938 98.3994,150.605 97.5,153.5C 93.1341,160.836 91.6341,168.836 93,177.5C 93.1981,179.382 93.6981,181.048 94.5,182.5C 96.0098,187.854 98.3431,192.854 101.5,197.5C 88.4957,197.333 75.4957,197.5 62.5,198C 43.2279,206.051 38.0613,219.551 47,238.5C 50.9031,243.868 56.0698,247.368 62.5,249C 86.4977,249.5 110.498,249.667 134.5,249.5C 134.5,255.5 134.5,261.5 134.5,267.5C 94.5,267.5 54.5,267.5 14.5,267.5C 14.3334,248.497 14.5001,229.497 15,210.5C 16.193,203.588 18.193,196.921 21,190.5C 38.1546,158.499 64.9879,143.499 101.5,145.5 Z"/></g>
<g><path style="opacity:1" fill="#fefefe" d="M 281.5,145.5 C 331.501,145.333 381.501,145.5 431.5,146C 439.404,147.559 447.071,149.893 454.5,153C 485.811,170.544 500.144,197.377 497.5,233.5C 488.984,235.353 481.651,239.353 475.5,245.5C 472.15,245.665 468.817,245.498 465.5,245C 480.167,230.667 480.167,216.333 465.5,202C 462.618,200.392 459.618,199.059 456.5,198C 434.833,197.833 413.167,197.667 391.5,197.5C 368.772,197.349 346.105,197.849 323.5,199C 306.476,208.074 302.309,221.241 311,238.5C 313.167,240.667 315.333,242.833 317.5,245C 308.173,245.5 298.839,245.666 289.5,245.5C 304.008,230.95 304.008,216.45 289.5,202C 286.924,200.544 284.258,199.377 281.5,198.5C 281.5,180.833 281.5,163.167 281.5,145.5 Z"/></g>
<g><path style="opacity:1" fill="#1d2259" d="M 263.5,132.5 C 264.83,138.463 265.496,144.796 265.5,151.5C 264.871,187.504 264.537,223.504 264.5,259.5C 263.5,217.172 263.167,174.839 263.5,132.5 Z"/></g>
<g><path style="opacity:1" fill="#1e1a5f" d="M 140.5,167.5 C 140.5,164.833 140.5,162.167 140.5,159.5C 139.5,159.5 138.5,159.5 137.5,159.5C 136.599,158.71 135.932,157.71 135.5,156.5C 134.924,149.427 138.257,146.427 145.5,147.5C 150.526,147.859 153.192,150.526 153.5,155.5C 150.896,155.598 148.896,156.765 147.5,159C 149.444,162.628 150.278,166.462 150,170.5C 149.261,169.426 148.261,168.759 147,168.5C 145.121,170.013 142.954,170.679 140.5,170.5C 140.5,169.5 140.5,168.5 140.5,167.5 Z"/></g>
<g><path style="opacity:1" fill="#6b34f2" d="M 224.5,88.5 C 227.693,89.6645 230.693,91.3312 233.5,93.5C 234.386,94.325 234.719,95.325 234.5,96.5C 235.5,96.5 236.5,96.5 237.5,96.5C 241.766,101.941 246.266,107.274 251,112.5C 252.542,116.086 254.375,119.419 256.5,122.5C 257.441,126.656 258.774,130.656 260.5,134.5C 261.5,177.161 261.833,219.828 261.5,262.5C 260.668,236.003 260.168,209.336 260,182.5C 259.654,208.456 258.487,234.29 256.5,260C 258.618,263.156 258.951,266.489 257.5,270C 258,270.5 258.5,271 259,271.5C 259.664,278.541 259.331,285.541 258,292.5C 256.576,288.703 256.076,284.703 256.5,280.5C 252.534,281.162 248.534,281.495 244.5,281.5C 244.5,275.5 244.5,269.5 244.5,263.5C 242.167,263.5 239.833,263.5 237.5,263.5C 237.5,254.5 237.5,245.5 237.5,236.5C 236.5,236.5 235.5,236.5 234.5,236.5C 234.446,242.187 234.779,247.854 235.5,253.5C 234.702,286.823 234.202,320.156 234,353.5C 233.333,277.833 233.333,202.167 234,126.5C 236.381,127.435 238.881,127.768 241.5,127.5C 241.335,123.818 241.501,120.152 242,116.5C 242.75,115.874 243.584,115.374 244.5,115C 241.433,112.191 239.766,108.691 239.5,104.5C 237.252,104.832 234.918,104.832 232.5,104.5C 231.571,105.689 231.238,107.022 231.5,108.5C 230.108,104.014 228.942,99.3472 228,94.5C 227.074,92.3083 225.907,90.3083 224.5,88.5 Z"/></g>
<g><path style="opacity:1" fill="#9192b5" d="M 137.5,159.5 C 138.5,159.5 139.5,159.5 140.5,159.5C 140.5,162.167 140.5,164.833 140.5,167.5C 140.167,167.5 139.833,167.5 139.5,167.5C 139.868,164.467 139.202,161.8 137.5,159.5 Z"/></g>
<g><path style="opacity:1" fill="#242356" d="M 129.5,121.5 C 129.5,129.167 129.5,136.833 129.5,144.5C 124.898,148.332 120.731,152.666 117,157.5C 115.139,159.888 113.806,162.554 113,165.5C 111.75,176.659 115.25,185.992 123.5,193.5C 119.909,193.33 116.576,192.997 113.5,192.5C 113.167,192.167 112.833,191.833 112.5,191.5C 114.345,189.464 114.845,187.13 114,184.5C 112.835,182.272 111.335,180.939 109.5,180.5C 108.423,177.912 107.423,175.245 106.5,172.5C 106.977,171.522 107.643,170.689 108.5,170C 107.424,168.274 107.257,166.441 108,164.5C 112.351,158.316 117.518,152.983 123.5,148.5C 124.386,147.675 124.719,146.675 124.5,145.5C 125.5,145.5 126.5,145.5 127.5,145.5C 127.841,137.325 128.508,129.325 129.5,121.5 Z"/></g>
<g><path style="opacity:1" fill="#64546c" d="M 97.5,153.5 C 95.3155,159.257 93.9821,165.257 93.5,171.5C 94.1162,175.145 94.4495,178.812 94.5,182.5C 93.6981,181.048 93.1981,179.382 93,177.5C 91.6341,168.836 93.1341,160.836 97.5,153.5 Z"/></g>
<g><path style="opacity:1" fill="#242358" d="M 162.5,181.5 C 162.5,178.5 162.5,175.5 162.5,172.5C 159.455,172.342 156.621,173.009 154,174.5C 147.92,173.178 141.753,172.178 135.5,171.5C 135.688,173.103 135.188,174.437 134,175.5C 132.89,173.963 131.39,173.297 129.5,173.5C 129.5,175.833 129.5,178.167 129.5,180.5C 128.883,180.389 128.383,180.056 128,179.5C 126.365,171.801 129.531,168.634 137.5,170C 138.381,169.292 139.047,168.458 139.5,167.5C 139.833,167.5 140.167,167.5 140.5,167.5C 140.5,168.5 140.5,169.5 140.5,170.5C 142.954,170.679 145.121,170.013 147,168.5C 148.261,168.759 149.261,169.426 150,170.5C 150.278,166.462 149.444,162.628 147.5,159C 148.896,156.765 150.896,155.598 153.5,155.5C 153.192,150.526 150.526,147.859 145.5,147.5C 138.257,146.427 134.924,149.427 135.5,156.5C 133.8,152.927 134.467,149.761 137.5,147C 143.833,146.333 150.167,146.333 156.5,147C 160.41,150.925 160.41,154.925 156.5,159C 154.866,159.494 153.199,159.66 151.5,159.5C 150.086,168.786 154.086,172.62 163.5,171C 165.478,173.497 165.978,176.331 165,179.5C 164.292,180.381 163.458,181.047 162.5,181.5 Z"/></g>
<g><path style="opacity:1" fill="#1f1c63" d="M 162.5,181.5 C 162.167,181.5 161.833,181.5 161.5,181.5C 156.779,182.268 152.779,181.101 149.5,178C 145.539,177.032 142.039,177.866 139,180.5C 136.752,175.338 134.585,175.504 132.5,181C 131.552,181.483 130.552,181.649 129.5,181.5C 129.5,181.167 129.5,180.833 129.5,180.5C 129.5,178.167 129.5,175.833 129.5,173.5C 131.39,173.297 132.89,173.963 134,175.5C 135.188,174.437 135.688,173.103 135.5,171.5C 141.753,172.178 147.92,173.178 154,174.5C 156.621,173.009 159.455,172.342 162.5,172.5C 162.5,175.5 162.5,178.5 162.5,181.5 Z"/></g>
<g><path style="opacity:1" fill="#322e5f" d="M 161.5,181.5 C 161.389,182.117 161.056,182.617 160.5,183C 157.833,183.667 155.167,183.667 152.5,183C 150.323,181.485 148.156,179.985 146,178.5C 143.23,180.135 140.397,181.635 137.5,183C 134.462,183.885 131.795,183.385 129.5,181.5C 130.552,181.649 131.552,181.483 132.5,181C 134.585,175.504 136.752,175.338 139,180.5C 142.039,177.866 145.539,177.032 149.5,178C 152.779,181.101 156.779,182.268 161.5,181.5 Z"/></g>
<g><path style="opacity:1" fill="#231d5c" d="M 111.5,120.5 C 111.412,129.258 111.912,137.925 113,146.5C 112.101,144.673 110.767,143.34 109,142.5C 106.844,143.985 104.677,145.485 102.5,147C 103.227,148.399 103.727,149.899 104,151.5C 107.326,149.99 108.993,150.99 109,154.5C 106.2,155.125 103.366,155.792 100.5,156.5C 102.074,157.984 103.407,159.651 104.5,161.5C 104.167,161.833 103.833,162.167 103.5,162.5C 102.833,161.833 102.167,161.167 101.5,160.5C 99.9291,161.309 98.2624,161.643 96.5,161.5C 94.1543,172.719 95.4876,183.386 100.5,193.5C 102.588,194.489 104.588,194.156 106.5,192.5C 106.975,188.252 107.975,184.252 109.5,180.5C 111.335,180.939 112.835,182.272 114,184.5C 114.845,187.13 114.345,189.464 112.5,191.5C 112.833,191.833 113.167,192.167 113.5,192.5C 116.576,192.997 119.909,193.33 123.5,193.5C 123.414,194.496 123.748,195.329 124.5,196C 132.168,199.149 140.168,200.316 148.5,199.5C 142.013,200.328 135.346,200.828 128.5,201C 130.366,203.282 132.532,204.115 135,203.5C 135.667,206.167 135.667,208.833 135,211.5C 133.491,212.09 131.991,212.756 130.5,213.5C 131.77,214.288 132.77,215.288 133.5,216.5C 120.331,214.322 109.665,207.988 101.5,197.5C 98.3431,192.854 96.0098,187.854 94.5,182.5C 94.4495,178.812 94.1162,175.145 93.5,171.5C 93.9821,165.257 95.3155,159.257 97.5,153.5C 98.3994,150.605 99.7328,147.938 101.5,145.5C 103.433,143.063 105.6,140.729 108,138.5C 108.497,135.854 108.664,133.187 108.5,130.5C 110.119,127.452 111.119,124.119 111.5,120.5 Z"/></g>
<g><path style="opacity:1" fill="#fdae8f" d="M 101.5,197.5 C 109.665,207.988 120.331,214.322 133.5,216.5C 133.783,217.289 134.283,217.956 135,218.5C 135.5,228.828 135.666,239.161 135.5,249.5C 135.167,249.5 134.833,249.5 134.5,249.5C 110.498,249.667 86.4977,249.5 62.5,249C 56.0698,247.368 50.9031,243.868 47,238.5C 38.0613,219.551 43.2279,206.051 62.5,198C 75.4957,197.5 88.4957,197.333 101.5,197.5 Z"/></g>
<g><path style="opacity:1" fill="#e7ecf4" d="M 475.5,245.5 C 475.167,246.5 474.5,247.167 473.5,247.5C 409.998,247.832 346.664,247.499 283.5,246.5C 285.565,246.483 287.565,246.15 289.5,245.5C 298.839,245.666 308.173,245.5 317.5,245C 315.333,242.833 313.167,240.667 311,238.5C 302.309,221.241 306.476,208.074 323.5,199C 346.105,197.849 368.772,197.349 391.5,197.5C 413.167,197.667 434.833,197.833 456.5,198C 459.618,199.059 462.618,200.392 465.5,202C 480.167,216.333 480.167,230.667 465.5,245C 468.817,245.498 472.15,245.665 475.5,245.5 Z"/></g>
<g><path style="opacity:1" fill="#fdae8f" d="M 281.5,198.5 C 284.258,199.377 286.924,200.544 289.5,202C 304.008,216.45 304.008,230.95 289.5,245.5C 287.565,246.15 285.565,246.483 283.5,246.5C 283.167,245.5 282.5,244.833 281.5,244.5C 281.5,229.167 281.5,213.833 281.5,198.5 Z"/></g>
<g><path style="opacity:1" fill="#9c70fe" d="M 209.5,190.5 C 209.122,193.022 208.289,195.355 207,197.5C 204.32,197.015 201.653,196.682 199,196.5C 197.491,197.09 195.991,197.756 194.5,198.5C 195.376,199.251 196.376,199.751 197.5,200C 195.355,200.743 195.189,201.576 197,202.5C 200.037,203.913 203.204,205.08 206.5,206C 201.6,208.454 196.267,209.787 190.5,210C 189.544,213.394 189.211,216.894 189.5,220.5C 187.801,220.34 186.134,220.506 184.5,221C 183.941,221.725 183.608,222.558 183.5,223.5C 184.607,226.44 185.94,229.273 187.5,232C 186.99,233.826 186.156,233.993 185,232.5C 184.833,234.167 184.667,235.833 184.5,237.5C 185.939,239.668 186.939,243.335 187.5,248.5C 188.358,244.351 189.525,240.351 191,236.5C 191.432,231.154 191.266,225.82 190.5,220.5C 194.767,220.203 198.934,220.536 203,221.5C 203.957,218.621 203.457,216.121 201.5,214C 203.473,213.505 205.473,213.338 207.5,213.5C 207.5,212.167 207.5,210.833 207.5,209.5C 209.167,209.5 210.833,209.5 212.5,209.5C 212.5,211.5 212.5,213.5 212.5,215.5C 215.448,215.777 218.281,215.444 221,214.5C 221.176,211.118 221.676,207.785 222.5,204.5C 222.833,206.167 223.167,207.833 223.5,209.5C 223.047,242.463 222.714,275.463 222.5,308.5C 223.833,308.5 225.167,308.5 226.5,308.5C 226.779,295.143 226.445,281.81 225.5,268.5C 225.79,266.956 226.456,265.623 227.5,264.5C 225.635,244.652 224.968,224.819 225.5,205C 226.783,202.373 228.283,199.873 230,197.5C 230.5,254.832 230.667,312.166 230.5,369.5C 226.866,369.157 225.199,370.823 225.5,374.5C 225.649,376.32 226.316,377.82 227.5,379C 226.207,379.49 224.873,379.657 223.5,379.5C 223.399,371.704 221.566,364.371 218,357.5C 217.501,353.848 217.335,350.182 217.5,346.5C 215.833,346.5 214.167,346.5 212.5,346.5C 212.5,348.5 212.5,350.5 212.5,352.5C 210.5,352.5 208.5,352.5 206.5,352.5C 206.5,358.167 206.5,363.833 206.5,369.5C 204.833,369.5 203.167,369.5 201.5,369.5C 201.5,367.5 201.5,365.5 201.5,363.5C 197.241,363.997 193.241,363.331 189.5,361.5C 188.269,362.651 188.269,363.817 189.5,365C 185.129,365.828 180.795,365.661 176.5,364.5C 174.973,362.807 173.64,360.973 172.5,359C 173.756,358.583 174.423,357.75 174.5,356.5C 176.008,359.25 178.341,360.084 181.5,359C 182.733,357.302 183.4,355.302 183.5,353C 184.137,347.489 181.804,345.489 176.5,347C 174.679,349.456 174.012,352.289 174.5,355.5C 173.686,353.369 173.186,351.036 173,348.5C 172.526,353.627 171.526,353.627 170,348.5C 169.824,351.882 169.324,355.215 168.5,358.5C 167.718,355.047 167.384,351.714 167.5,348.5C 168.025,347.808 168.692,347.308 169.5,347C 169.167,346.667 168.833,346.333 168.5,346C 170.457,343.587 171.457,341.087 171.5,338.5C 175.806,337.408 180.139,336.408 184.5,335.5C 182.587,334.949 180.587,334.782 178.5,335C 179.308,334.692 179.975,334.192 180.5,333.5C 179.398,332.824 178.398,332.158 177.5,331.5C 179.722,331.822 181.556,331.155 183,329.5C 183.667,326.167 183.667,322.833 183,319.5C 175.974,317.353 173.14,320.02 174.5,327.5C 173.732,326.737 173.232,325.737 173,324.5C 172.667,325.833 172.333,327.167 172,328.5C 170.826,326.329 168.993,325.329 166.5,325.5C 166.201,323.396 166.534,321.396 167.5,319.5C 168.386,320.325 168.719,321.325 168.5,322.5C 169.5,322.5 170.5,322.5 171.5,322.5C 171.703,320.61 171.037,319.11 169.5,318C 170.448,317.517 171.448,317.351 172.5,317.5C 172.5,316.167 172.5,314.833 172.5,313.5C 171.5,313.5 170.5,313.5 169.5,313.5C 169.167,310.167 168.833,306.833 168.5,303.5C 171.187,303.664 173.854,303.497 176.5,303C 175.748,302.329 175.414,301.496 175.5,300.5C 178.006,303.086 180.506,303.086 183,300.5C 183.987,296.525 183.487,292.859 181.5,289.5C 183.842,289.225 183.842,288.392 181.5,287C 181.833,286.833 182.167,286.667 182.5,286.5C 184.167,287.833 185.833,287.833 187.5,286.5C 187.833,287.333 188.167,288.167 188.5,289C 187.452,293.789 186.785,298.622 186.5,303.5C 187.5,303.5 188.5,303.5 189.5,303.5C 190.91,300.036 190.577,296.703 188.5,293.5C 189.325,292.614 190.325,292.281 191.5,292.5C 190.933,289.424 190.599,286.424 190.5,283.5C 184.835,282.403 179.168,282.237 173.5,283C 175.398,282.1 177.064,280.934 178.5,279.5C 177.91,278.201 176.91,277.368 175.5,277C 178.371,276.882 181.038,276.216 183.5,275C 182.906,274.536 182.239,274.369 181.5,274.5C 183.506,270.802 184.006,266.802 183,262.5C 179.929,261.041 177.096,261.374 174.5,263.5C 174.19,262.262 173.69,262.262 173,263.5C 172.713,265.891 172.213,268.224 171.5,270.5C 170.224,271.645 168.891,271.645 167.5,270.5C 166.848,275.089 165.848,279.589 164.5,284C 164.495,286.163 165.495,287.663 167.5,288.5C 167.154,289.696 166.654,289.696 166,288.5C 164.915,293.437 164.248,298.437 164,303.5C 163.167,288.822 163.334,274.155 164.5,259.5C 165.425,258.359 166.259,258.359 167,259.5C 169.822,256.845 172.989,254.845 176.5,253.5C 176.854,251.459 176.854,249.626 176.5,248C 183.72,247.027 184.053,245.861 177.5,244.5C 179.467,244.739 181.301,244.406 183,243.5C 183.827,239.459 183.66,235.459 182.5,231.5C 179.709,229.96 177.209,230.294 175,232.5C 174.503,235.146 174.336,237.813 174.5,240.5C 173.732,239.737 173.232,238.737 173,237.5C 172.667,238.833 172.333,240.167 172,241.5C 170.926,240.382 169.76,239.382 168.5,238.5C 170.03,236.774 171.03,234.774 171.5,232.5C 171.443,230.519 170.943,228.519 170,226.5C 171.356,227.38 172.856,227.714 174.5,227.5C 174.662,225.473 174.495,223.473 174,221.5C 172.644,220.62 171.144,220.286 169.5,220.5C 169.261,218.533 169.594,216.699 170.5,215C 169.207,214.51 167.873,214.343 166.5,214.5C 166.5,212.833 166.5,211.167 166.5,209.5C 168.5,209.5 170.5,209.5 172.5,209.5C 172.662,207.473 172.495,205.473 172,203.5C 171.228,202.151 170.061,201.318 168.5,201C 176.235,201.137 183.568,200.304 190.5,198.5C 190.5,198.167 190.5,197.833 190.5,197.5C 194.188,196.828 197.855,195.995 201.5,195C 204.059,193.223 206.726,191.723 209.5,190.5 Z"/></g>
<g><path style="opacity:1" fill="#4328a7" d="M 256.5,122.5 C 258.368,125.729 260.201,129.062 262,132.5C 262.5,175.832 262.667,219.165 262.5,262.5C 262.167,262.5 261.833,262.5 261.5,262.5C 261.833,219.828 261.5,177.161 260.5,134.5C 258.774,130.656 257.441,126.656 256.5,122.5 Z"/></g>
<g><path style="opacity:1" fill="#6c34f5" d="M 261.5,262.5 C 263.227,281.603 264.227,300.77 264.5,320C 263.831,339.888 263.665,359.721 264,379.5C 262.506,380.747 261.006,380.747 259.5,379.5C 258.398,377.039 258.398,374.539 259.5,372C 259.491,370.596 258.991,369.43 258,368.5C 253.599,369.467 249.099,369.8 244.5,369.5C 244.5,371.167 244.5,372.833 244.5,374.5C 243.167,374.5 241.833,374.5 240.5,374.5C 240.5,376.167 240.5,377.833 240.5,379.5C 238.25,379.181 236.25,379.681 234.5,381C 245.88,381.811 257.213,381.645 268.5,380.5C 269.333,343.838 269.833,307.171 270,270.5C 270.5,307.832 270.667,345.165 270.5,382.5C 269.609,383.11 268.609,383.443 267.5,383.5C 255.586,383.821 243.753,383.488 232,382.5C 231.5,291.167 231.333,199.834 231.5,108.5C 231.238,107.022 231.571,105.689 232.5,104.5C 234.918,104.832 237.252,104.832 239.5,104.5C 239.766,108.691 241.433,112.191 244.5,115C 243.584,115.374 242.75,115.874 242,116.5C 241.501,120.152 241.335,123.818 241.5,127.5C 238.881,127.768 236.381,127.435 234,126.5C 233.333,202.167 233.333,277.833 234,353.5C 234.202,320.156 234.702,286.823 235.5,253.5C 234.779,247.854 234.446,242.187 234.5,236.5C 235.5,236.5 236.5,236.5 237.5,236.5C 237.5,245.5 237.5,254.5 237.5,263.5C 239.833,263.5 242.167,263.5 244.5,263.5C 244.5,269.5 244.5,275.5 244.5,281.5C 248.534,281.495 252.534,281.162 256.5,280.5C 256.076,284.703 256.576,288.703 258,292.5C 259.331,285.541 259.664,278.541 259,271.5C 258.5,271 258,270.5 257.5,270C 258.951,266.489 258.618,263.156 256.5,260C 258.487,234.29 259.654,208.456 260,182.5C 260.168,209.336 260.668,236.003 261.5,262.5 Z"/></g>
<g><path style="opacity:1" fill="#221e5f" d="M 262.5,98.5 C 264.167,99.8333 265.833,101.167 267.5,102.5C 269.268,105.703 270.768,109.037 272,112.5C 272.708,113.381 273.542,114.047 274.5,114.5C 275.924,120.112 277.924,125.445 280.5,130.5C 281.254,135.463 281.587,140.463 281.5,145.5C 281.5,163.167 281.5,180.833 281.5,198.5C 281.5,213.833 281.5,229.167 281.5,244.5C 282.111,247.694 284.111,249.361 287.5,249.5C 349.646,248.841 411.646,248.174 473.5,247.5C 474.5,247.167 475.167,246.5 475.5,245.5C 481.651,239.353 488.984,235.353 497.5,233.5C 497.279,234.735 496.612,235.735 495.5,236.5C 497.388,241.938 498.054,247.605 497.5,253.5C 495.015,254.26 495.015,255.26 497.5,256.5C 497.5,264.167 497.5,271.833 497.5,279.5C 494.455,276.453 491.122,273.787 487.5,271.5C 486.29,271.068 485.29,270.401 484.5,269.5C 485.833,269.5 487.167,269.5 488.5,269.5C 488.5,267.833 488.5,266.167 488.5,264.5C 481.053,262.984 473.719,261.15 466.5,259C 413.167,258.333 359.833,258.333 306.5,259C 359.931,259.987 413.264,260.987 466.5,262C 410.638,262.827 354.805,262.66 299,261.5C 297.073,262.861 294.906,263.694 292.5,264C 352.001,264.167 411.335,264.667 470.5,265.5C 411.167,265.5 351.833,265.5 292.5,265.5C 292.5,267.833 292.5,270.167 292.5,272.5C 291.523,275.287 291.19,278.287 291.5,281.5C 290.668,306.997 290.168,332.663 290,358.5C 289.89,332.478 289.224,306.478 288,280.5C 286.837,282.285 286.17,284.285 286,286.5C 285.798,284.744 285.298,283.078 284.5,281.5C 283.511,285.107 283.177,288.774 283.5,292.5C 281.833,292.5 280.167,292.5 278.5,292.5C 278.831,318.005 278.498,343.339 277.5,368.5C 277.5,336.167 277.5,303.833 277.5,271.5C 276.018,268.566 273.684,266.566 270.5,265.5C 270.167,265.5 269.833,265.5 269.5,265.5C 268.77,264.288 267.77,263.288 266.5,262.5C 275.088,261.529 275.421,260.029 267.5,258C 267.488,251.285 267.654,244.452 268,237.5C 269.011,236.663 270.178,236.33 271.5,236.5C 271.5,233.167 271.5,229.833 271.5,226.5C 272.833,226.5 274.167,226.5 275.5,226.5C 274.127,221.277 273.461,215.944 273.5,210.5C 274.5,210.5 275.5,210.5 276.5,210.5C 276.337,208.143 276.503,205.81 277,203.5C 277.033,211.332 277.7,218.999 279,226.5C 279.5,196.835 279.667,167.169 279.5,137.5C 277.5,137.5 275.5,137.5 273.5,137.5C 271.913,130.205 270.246,122.871 268.5,115.5C 265.974,116.391 263.641,115.891 261.5,114C 263.342,111.304 263.675,108.471 262.5,105.5C 261.719,106.729 261.219,108.062 261,109.5C 260.833,108.333 260.667,107.167 260.5,106C 261.336,103.51 262.002,101.01 262.5,98.5 Z"/></g>
<g><path style="opacity:1" fill="#131240" d="M 281.5,244.5 C 282.5,244.833 283.167,245.5 283.5,246.5C 346.664,247.499 409.998,247.832 473.5,247.5C 411.646,248.174 349.646,248.841 287.5,249.5C 284.111,249.361 282.111,247.694 281.5,244.5 Z"/></g>
<g><path style="opacity:1" fill="#101344" d="M 123.5,193.5 C 125.167,194.167 126.833,194.833 128.5,195.5C 129.842,196.793 131.509,197.626 133.5,198C 140.158,198.5 146.825,198.666 153.5,198.5C 153.5,260.5 153.5,322.5 153.5,384.5C 152.501,323.002 152.168,261.336 152.5,199.5C 151.167,199.5 149.833,199.5 148.5,199.5C 140.168,200.316 132.168,199.149 124.5,196C 123.748,195.329 123.414,194.496 123.5,193.5 Z"/></g>
<g><path style="opacity:1" fill="#bfc1d3" d="M 497.5,253.5 C 497.5,254.5 497.5,255.5 497.5,256.5C 495.015,255.26 495.015,254.26 497.5,253.5 Z"/></g>
<g><path style="opacity:1" fill="#191463" d="M 484.5,269.5 C 481.167,268.5 477.833,267.5 474.5,266.5C 473.167,266.167 471.833,265.833 470.5,265.5C 411.335,264.667 352.001,264.167 292.5,264C 294.906,263.694 297.073,262.861 299,261.5C 354.805,262.66 410.638,262.827 466.5,262C 413.264,260.987 359.931,259.987 306.5,259C 359.833,258.333 413.167,258.333 466.5,259C 473.719,261.15 481.053,262.984 488.5,264.5C 488.5,266.167 488.5,267.833 488.5,269.5C 487.167,269.5 485.833,269.5 484.5,269.5 Z"/></g>
<g><path style="opacity:1" fill="#e8edf5" d="M 134.5,249.5 C 134.833,249.5 135.167,249.5 135.5,249.5C 135.5,332.833 135.5,416.167 135.5,499.5C 134.502,463.337 134.168,427.004 134.5,390.5C 134.5,373.167 134.5,355.833 134.5,338.5C 134.5,332.167 134.5,325.833 134.5,319.5C 94.5,319.5 54.5,319.5 14.5,319.5C 14.5,302.167 14.5,284.833 14.5,267.5C 54.5,267.5 94.5,267.5 134.5,267.5C 134.5,261.5 134.5,255.5 134.5,249.5 Z"/></g>
<g><path style="opacity:1" fill="#a895f6" d="M 190.5,197.5 C 190.5,197.833 190.5,198.167 190.5,198.5C 181.167,198.5 171.833,198.5 162.5,198.5C 162.5,260.5 162.5,322.5 162.5,384.5C 162.167,384.5 161.833,384.5 161.5,384.5C 161.5,384.167 161.5,383.833 161.5,383.5C 161.5,321.5 161.5,259.5 161.5,197.5C 171.167,197.5 180.833,197.5 190.5,197.5 Z"/></g>
<g><path style="opacity:1" fill="#e8edf6" d="M 474.5,266.5 C 477.833,267.5 481.167,268.5 484.5,269.5C 485.29,270.401 486.29,271.068 487.5,271.5C 486.878,273.335 485.544,274.502 483.5,275C 489.507,280.182 493.007,286.682 494,294.5C 494.23,344.841 494.73,395.174 495.5,445.5C 492.127,462.259 484.127,476.259 471.5,487.5C 471.5,468.5 471.5,449.5 471.5,430.5C 470.167,430.5 468.833,430.5 467.5,430.5C 467.17,450.34 467.503,470.007 468.5,489.5C 468.5,490.167 468.167,490.5 467.5,490.5C 467.163,470.312 466.163,450.312 464.5,430.5C 464.5,430.167 464.5,429.833 464.5,429.5C 466.354,425.443 465.021,422.609 460.5,421C 405.168,420.5 349.834,420.333 294.5,420.5C 294.5,369.833 294.5,319.167 294.5,268.5C 355.168,268.667 415.834,268.5 476.5,268C 475.584,267.722 474.918,267.222 474.5,266.5 Z"/></g>
<g><path style="opacity:1" fill="#cfdaec" d="M 487.5,271.5 C 491.122,273.787 494.455,276.453 497.5,279.5C 497.667,333.168 497.5,386.834 497,440.5C 496.802,442.382 496.302,444.048 495.5,445.5C 494.73,395.174 494.23,344.841 494,294.5C 493.007,286.682 489.507,280.182 483.5,275C 485.544,274.502 486.878,273.335 487.5,271.5 Z"/></g>
<g><path style="opacity:1" fill="#dee0e8" d="M 154.5,197.5 C 155.499,259.331 155.832,321.331 155.5,383.5C 157.5,383.5 159.5,383.5 161.5,383.5C 161.5,383.833 161.5,384.167 161.5,384.5C 159.167,384.5 156.833,384.5 154.5,384.5C 154.5,322.167 154.5,259.833 154.5,197.5 Z"/></g>
<g><path style="opacity:1" fill="#5c607f" d="M 128.5,195.5 C 137.022,197.294 145.689,197.961 154.5,197.5C 154.5,259.833 154.5,322.167 154.5,384.5C 156.833,384.5 159.167,384.5 161.5,384.5C 158.834,384.98 156.334,385.98 154,387.5C 153.517,386.552 153.351,385.552 153.5,384.5C 153.5,322.5 153.5,260.5 153.5,198.5C 146.825,198.666 140.158,198.5 133.5,198C 131.509,197.626 129.842,196.793 128.5,195.5 Z"/></g>
<g><path style="opacity:1" fill="#1f186a" d="M 277.5,271.5 C 277.5,303.833 277.5,336.167 277.5,368.5C 277.824,372.555 277.491,376.555 276.5,380.5C 275.333,343.838 275.167,307.171 276,270.5C 276.383,271.056 276.883,271.389 277.5,271.5 Z"/></g>
<g><path style="opacity:1" fill="#4a379b" d="M 292.5,272.5 C 292.5,325.167 292.5,377.833 292.5,430.5C 291.624,430.631 290.957,430.298 290.5,429.5C 291.495,380.209 291.829,330.875 291.5,281.5C 291.19,278.287 291.523,275.287 292.5,272.5 Z"/></g>
<g><path style="opacity:1" fill="#e5e9f5" d="M 470.5,265.5 C 471.833,265.833 473.167,266.167 474.5,266.5C 474.918,267.222 475.584,267.722 476.5,268C 415.834,268.5 355.168,268.667 294.5,268.5C 294.5,319.167 294.5,369.833 294.5,420.5C 294.5,423.5 294.5,426.5 294.5,429.5C 351.167,429.5 407.833,429.5 464.5,429.5C 464.5,429.833 464.5,430.167 464.5,430.5C 407.167,430.5 349.833,430.5 292.5,430.5C 292.5,377.833 292.5,325.167 292.5,272.5C 292.5,270.167 292.5,267.833 292.5,265.5C 351.833,265.5 411.167,265.5 470.5,265.5 Z"/></g>
<g><path style="opacity:1" fill="#fefefe" d="M 14.5,319.5 C 54.5,319.5 94.5,319.5 134.5,319.5C 134.5,325.833 134.5,332.167 134.5,338.5C 94.5,338.5 54.5,338.5 14.5,338.5C 14.5,332.167 14.5,325.833 14.5,319.5 Z"/></g>
<g><path style="opacity:1" fill="#9a6dfe" d="M 209.5,79.5 C 211.167,80.1667 212.833,80.8333 214.5,81.5C 217.124,83.1011 219.79,84.7678 222.5,86.5C 222.5,87.1667 222.833,87.5 223.5,87.5C 223.5,88.1667 223.833,88.5 224.5,88.5C 225.907,90.3083 227.074,92.3083 228,94.5C 228.942,99.3472 230.108,104.014 231.5,108.5C 231.333,199.834 231.5,291.167 232,382.5C 243.753,383.488 255.586,383.821 267.5,383.5C 233.004,384.498 198.337,384.832 163.5,384.5C 163.167,384.5 162.833,384.5 162.5,384.5C 162.5,322.5 162.5,260.5 162.5,198.5C 171.833,198.5 181.167,198.5 190.5,198.5C 183.568,200.304 176.235,201.137 168.5,201C 170.061,201.318 171.228,202.151 172,203.5C 172.495,205.473 172.662,207.473 172.5,209.5C 170.5,209.5 168.5,209.5 166.5,209.5C 166.5,211.167 166.5,212.833 166.5,214.5C 167.873,214.343 169.207,214.51 170.5,215C 169.594,216.699 169.261,218.533 169.5,220.5C 171.144,220.286 172.644,220.62 174,221.5C 174.495,223.473 174.662,225.473 174.5,227.5C 172.856,227.714 171.356,227.38 170,226.5C 170.943,228.519 171.443,230.519 171.5,232.5C 171.03,234.774 170.03,236.774 168.5,238.5C 169.76,239.382 170.926,240.382 172,241.5C 172.333,240.167 172.667,238.833 173,237.5C 173.232,238.737 173.732,239.737 174.5,240.5C 175.026,242.23 176.026,243.564 177.5,244.5C 184.053,245.861 183.72,247.027 176.5,248C 176.854,249.626 176.854,251.459 176.5,253.5C 172.989,254.845 169.822,256.845 167,259.5C 166.259,258.359 165.425,258.359 164.5,259.5C 163.334,274.155 163.167,288.822 164,303.5C 164.248,298.437 164.915,293.437 166,288.5C 166.654,289.696 167.154,289.696 167.5,288.5C 165.495,287.663 164.495,286.163 164.5,284C 165.848,279.589 166.848,275.089 167.5,270.5C 168.891,271.645 170.224,271.645 171.5,270.5C 172.213,268.224 172.713,265.891 173,263.5C 173.69,262.262 174.19,262.262 174.5,263.5C 172.71,270.148 175.043,273.814 181.5,274.5C 182.239,274.369 182.906,274.536 183.5,275C 181.038,276.216 178.371,276.882 175.5,277C 176.91,277.368 177.91,278.201 178.5,279.5C 177.064,280.934 175.398,282.1 173.5,283C 179.168,282.237 184.835,282.403 190.5,283.5C 190.599,286.424 190.933,289.424 191.5,292.5C 190.325,292.281 189.325,292.614 188.5,293.5C 190.577,296.703 190.91,300.036 189.5,303.5C 188.5,303.5 187.5,303.5 186.5,303.5C 186.785,298.622 187.452,293.789 188.5,289C 188.167,288.167 187.833,287.333 187.5,286.5C 185.833,287.833 184.167,287.833 182.5,286.5C 182.167,286.667 181.833,286.833 181.5,287C 183.842,288.392 183.842,289.225 181.5,289.5C 178.956,289.104 176.789,289.771 175,291.5C 174.264,294.592 174.431,297.592 175.5,300.5C 175.414,301.496 175.748,302.329 176.5,303C 173.854,303.497 171.187,303.664 168.5,303.5C 168.833,306.833 169.167,310.167 169.5,313.5C 170.5,313.5 171.5,313.5 172.5,313.5C 172.5,314.833 172.5,316.167 172.5,317.5C 171.448,317.351 170.448,317.517 169.5,318C 171.037,319.11 171.703,320.61 171.5,322.5C 170.5,322.5 169.5,322.5 168.5,322.5C 168.719,321.325 168.386,320.325 167.5,319.5C 166.534,321.396 166.201,323.396 166.5,325.5C 168.993,325.329 170.826,326.329 172,328.5C 172.333,327.167 172.667,325.833 173,324.5C 173.232,325.737 173.732,326.737 174.5,327.5C 175.512,328.872 176.512,330.205 177.5,331.5C 178.398,332.158 179.398,332.824 180.5,333.5C 179.975,334.192 179.308,334.692 178.5,335C 180.587,334.782 182.587,334.949 184.5,335.5C 180.139,336.408 175.806,337.408 171.5,338.5C 171.457,341.087 170.457,343.587 168.5,346C 168.833,346.333 169.167,346.667 169.5,347C 168.692,347.308 168.025,347.808 167.5,348.5C 167.384,351.714 167.718,355.047 168.5,358.5C 169.324,355.215 169.824,351.882 170,348.5C 171.526,353.627 172.526,353.627 173,348.5C 173.186,351.036 173.686,353.369 174.5,355.5C 174.5,355.833 174.5,356.167 174.5,356.5C 174.423,357.75 173.756,358.583 172.5,359C 173.64,360.973 174.973,362.807 176.5,364.5C 180.795,365.661 185.129,365.828 189.5,365C 188.269,363.817 188.269,362.651 189.5,361.5C 193.241,363.331 197.241,363.997 201.5,363.5C 201.5,365.5 201.5,367.5 201.5,369.5C 203.167,369.5 204.833,369.5 206.5,369.5C 206.5,363.833 206.5,358.167 206.5,352.5C 208.5,352.5 210.5,352.5 212.5,352.5C 212.5,350.5 212.5,348.5 212.5,346.5C 214.167,346.5 215.833,346.5 217.5,346.5C 217.335,350.182 217.501,353.848 218,357.5C 221.566,364.371 223.399,371.704 223.5,379.5C 224.873,379.657 226.207,379.49 227.5,379C 226.316,377.82 225.649,376.32 225.5,374.5C 225.199,370.823 226.866,369.157 230.5,369.5C 230.667,312.166 230.5,254.832 230,197.5C 228.283,199.873 226.783,202.373 225.5,205C 224.968,224.819 225.635,244.652 227.5,264.5C 226.456,265.623 225.79,266.956 225.5,268.5C 226.445,281.81 226.779,295.143 226.5,308.5C 225.167,308.5 223.833,308.5 222.5,308.5C 222.714,275.463 223.047,242.463 223.5,209.5C 223.167,207.833 222.833,206.167 222.5,204.5C 221.676,207.785 221.176,211.118 221,214.5C 218.281,215.444 215.448,215.777 212.5,215.5C 212.5,213.5 212.5,211.5 212.5,209.5C 210.833,209.5 209.167,209.5 207.5,209.5C 207.5,210.833 207.5,212.167 207.5,213.5C 205.473,213.338 203.473,213.505 201.5,214C 203.457,216.121 203.957,218.621 203,221.5C 198.934,220.536 194.767,220.203 190.5,220.5C 191.266,225.82 191.432,231.154 191,236.5C 189.525,240.351 188.358,244.351 187.5,248.5C 186.939,243.335 185.939,239.668 184.5,237.5C 184.667,235.833 184.833,234.167 185,232.5C 186.156,233.993 186.99,233.826 187.5,232C 185.94,229.273 184.607,226.44 183.5,223.5C 183.608,222.558 183.941,221.725 184.5,221C 186.134,220.506 187.801,220.34 189.5,220.5C 189.211,216.894 189.544,213.394 190.5,210C 196.267,209.787 201.6,208.454 206.5,206C 203.204,205.08 200.037,203.913 197,202.5C 195.189,201.576 195.355,200.743 197.5,200C 196.376,199.751 195.376,199.251 194.5,198.5C 195.991,197.756 197.491,197.09 199,196.5C 201.653,196.682 204.32,197.015 207,197.5C 208.289,195.355 209.122,193.022 209.5,190.5C 214.957,185.337 218.457,179.004 220,171.5C 220.667,155.833 220.667,140.167 220,124.5C 219.617,123.944 219.117,123.611 218.5,123.5C 191.336,122.668 164.003,122.168 136.5,122C 138.204,119.763 139.204,117.263 139.5,114.5C 141.204,110.948 143.538,107.781 146.5,105C 159.089,94.2618 173.755,90.2618 190.5,93C 191.752,91.1722 191.752,89.3388 190.5,87.5C 190.082,86.7784 189.416,86.2784 188.5,86C 181.654,85.1794 174.987,85.346 168.5,86.5C 167.833,86.5 167.167,86.5 166.5,86.5C 166.167,86.5 165.833,86.5 165.5,86.5C 165.833,85.8333 166.167,85.1667 166.5,84.5C 177.5,84.5 188.5,84.5 199.5,84.5C 201.068,85.4731 202.735,85.6397 204.5,85C 205.833,82.8094 207.5,80.976 209.5,79.5 Z"/></g>
<g><path style="opacity:1" fill="#f4f1f8" d="M 181.5,274.5 C 175.043,273.814 172.71,270.148 174.5,263.5C 177.096,261.374 179.929,261.041 183,262.5C 184.006,266.802 183.506,270.802 181.5,274.5 Z"/></g>
<g><path style="opacity:1" fill="#f4f1f9" d="M 177.5,244.5 C 176.026,243.564 175.026,242.23 174.5,240.5C 174.336,237.813 174.503,235.146 175,232.5C 177.209,230.294 179.709,229.96 182.5,231.5C 183.66,235.459 183.827,239.459 183,243.5C 181.301,244.406 179.467,244.739 177.5,244.5 Z"/></g>
<g><path style="opacity:1" fill="#e9eef6" d="M 14.5,338.5 C 54.5,338.5 94.5,338.5 134.5,338.5C 134.5,355.833 134.5,373.167 134.5,390.5C 94.5,390.5 54.5,390.5 14.5,390.5C 14.5,373.167 14.5,355.833 14.5,338.5 Z"/></g>
<g><path style="opacity:1" fill="#6632e9" d="M 261.5,262.5 C 261.833,262.5 262.167,262.5 262.5,262.5C 263.167,263.5 263.833,264.5 264.5,265.5C 266.539,266.578 268.706,267.578 271,268.5C 271.831,306.669 271.664,344.669 270.5,382.5C 270.667,345.165 270.5,307.832 270,270.5C 269.833,307.171 269.333,343.838 268.5,380.5C 257.213,381.645 245.88,381.811 234.5,381C 236.25,379.681 238.25,379.181 240.5,379.5C 240.5,377.833 240.5,376.167 240.5,374.5C 241.833,374.5 243.167,374.5 244.5,374.5C 244.5,372.833 244.5,371.167 244.5,369.5C 249.099,369.8 253.599,369.467 258,368.5C 258.991,369.43 259.491,370.596 259.5,372C 258.398,374.539 258.398,377.039 259.5,379.5C 261.006,380.747 262.506,380.747 264,379.5C 263.665,359.721 263.831,339.888 264.5,320C 264.227,300.77 263.227,281.603 261.5,262.5 Z"/></g>
<g><path style="opacity:1" fill="#fefefe" d="M 14.5,390.5 C 54.5,390.5 94.5,390.5 134.5,390.5C 134.168,427.004 134.502,463.337 135.5,499.5C 135.5,501.833 135.5,504.167 135.5,506.5C 116.83,506.667 98.1637,506.5 79.5,506C 57.8668,502.158 40.8668,491.325 28.5,473.5C 51.8357,473.667 75.169,473.5 98.5,473C 114.956,468.94 122.122,458.44 120,441.5C 116.736,431.235 109.902,424.735 99.5,422C 71.1686,421.5 42.8353,421.333 14.5,421.5C 14.5,411.167 14.5,400.833 14.5,390.5 Z"/></g>
<g><path style="opacity:1" fill="#211d62" d="M 148.5,199.5 C 149.833,199.5 151.167,199.5 152.5,199.5C 152.168,261.336 152.501,323.002 153.5,384.5C 153.351,385.552 153.517,386.552 154,387.5C 156.334,385.98 158.834,384.98 161.5,384.5C 161.833,384.5 162.167,384.5 162.5,384.5C 162.833,384.5 163.167,384.5 163.5,384.5C 187.328,385.498 211.328,385.831 235.5,385.5C 212.67,386.332 189.67,386.832 166.5,387C 183.333,387.167 200.167,387.333 217,387.5C 234.18,387.5 251.014,386.833 267.5,385.5C 270.885,386.21 273.219,385.044 274.5,382C 272.686,343.947 271.853,305.78 272,267.5C 271.283,266.956 270.783,266.289 270.5,265.5C 273.684,266.566 276.018,268.566 277.5,271.5C 276.883,271.389 276.383,271.056 276,270.5C 275.167,307.171 275.333,343.838 276.5,380.5C 277.491,376.555 277.824,372.555 277.5,368.5C 278.498,343.339 278.831,318.005 278.5,292.5C 280.167,292.5 281.833,292.5 283.5,292.5C 283.177,288.774 283.511,285.107 284.5,281.5C 285.298,283.078 285.798,284.744 286,286.5C 286.17,284.285 286.837,282.285 288,280.5C 289.224,306.478 289.89,332.478 290,358.5C 290.168,332.663 290.668,306.997 291.5,281.5C 291.829,330.875 291.495,380.209 290.5,429.5C 290.957,430.298 291.624,430.631 292.5,430.5C 292.842,431.338 293.508,431.672 294.5,431.5C 293.519,456.455 293.186,481.455 293.5,506.5C 287.833,506.5 282.167,506.5 276.5,506.5C 276.831,481.328 276.498,456.328 275.5,431.5C 267.5,431.5 259.5,431.5 251.5,431.5C 222.167,431.5 192.833,431.5 163.5,431.5C 163.5,431.167 163.5,430.833 163.5,430.5C 200.173,430.667 236.84,430.333 273.5,429.5C 273.666,420.827 273.5,412.16 273,403.5C 271.301,402.594 269.467,402.261 267.5,402.5C 267.649,403.552 267.483,404.552 267,405.5C 264.581,404.544 262.081,404.544 259.5,405.5C 257.212,404.678 254.878,404.011 252.5,403.5C 223.028,404.359 193.695,404.359 164.5,403.5C 163.571,404.689 163.238,406.022 163.5,407.5C 163.167,407.5 162.833,407.5 162.5,407.5C 160.735,406.539 158.735,406.205 156.5,406.5C 156.5,414.167 156.5,421.833 156.5,429.5C 156.443,430.609 156.11,431.609 155.5,432.5C 155.5,456.167 155.5,479.833 155.5,503.5C 155.5,504.5 155.5,505.5 155.5,506.5C 148.833,506.5 142.167,506.5 135.5,506.5C 135.5,504.167 135.5,501.833 135.5,499.5C 135.5,416.167 135.5,332.833 135.5,249.5C 135.666,239.161 135.5,228.828 135,218.5C 134.283,217.956 133.783,217.289 133.5,216.5C 132.77,215.288 131.77,214.288 130.5,213.5C 131.991,212.756 133.491,212.09 135,211.5C 135.667,208.833 135.667,206.167 135,203.5C 132.532,204.115 130.366,203.282 128.5,201C 135.346,200.828 142.013,200.328 148.5,199.5 Z"/></g>
<g><path style="opacity:1" fill="#201d51" d="M 235.5,385.5 C 246.167,385.5 256.833,385.5 267.5,385.5C 251.014,386.833 234.18,387.5 217,387.5C 200.167,387.333 183.333,387.167 166.5,387C 189.67,386.832 212.67,386.332 235.5,385.5 Z"/></g>
<g><path style="opacity:1" fill="#3c2698" d="M 264.5,265.5 C 266.167,265.5 267.833,265.5 269.5,265.5C 269.833,265.5 270.167,265.5 270.5,265.5C 270.783,266.289 271.283,266.956 272,267.5C 271.853,305.78 272.686,343.947 274.5,382C 273.219,385.044 270.885,386.21 267.5,385.5C 256.833,385.5 246.167,385.5 235.5,385.5C 211.328,385.831 187.328,385.498 163.5,384.5C 198.337,384.832 233.004,384.498 267.5,383.5C 268.609,383.443 269.609,383.11 270.5,382.5C 271.664,344.669 271.831,306.669 271,268.5C 268.706,267.578 266.539,266.578 264.5,265.5 Z"/></g>
<g><path style="opacity:1" fill="#f2edfa" d="M 174.5,356.5 C 174.5,356.167 174.5,355.833 174.5,355.5C 174.012,352.289 174.679,349.456 176.5,347C 181.804,345.489 184.137,347.489 183.5,353C 183.4,355.302 182.733,357.302 181.5,359C 178.341,360.084 176.008,359.25 174.5,356.5 Z"/></g>
<g><path style="opacity:1" fill="#f6f3f6" d="M 177.5,331.5 C 176.512,330.205 175.512,328.872 174.5,327.5C 173.14,320.02 175.974,317.353 183,319.5C 183.667,322.833 183.667,326.167 183,329.5C 181.556,331.155 179.722,331.822 177.5,331.5 Z"/></g>
<g><path style="opacity:1" fill="#f5f1f6" d="M 181.5,289.5 C 183.487,292.859 183.987,296.525 183,300.5C 180.506,303.086 178.006,303.086 175.5,300.5C 174.431,297.592 174.264,294.592 175,291.5C 176.789,289.771 178.956,289.104 181.5,289.5 Z"/></g>
<g><path style="opacity:1" fill="#2f2279" d="M 163.5,430.5 C 163.5,430.167 163.5,429.833 163.5,429.5C 163.5,422.167 163.5,414.833 163.5,407.5C 163.238,406.022 163.571,404.689 164.5,403.5C 193.695,404.359 223.028,404.359 252.5,403.5C 254.878,404.011 257.212,404.678 259.5,405.5C 262.081,404.544 264.581,404.544 267,405.5C 267.483,404.552 267.649,403.552 267.5,402.5C 269.467,402.261 271.301,402.594 273,403.5C 273.5,412.16 273.666,420.827 273.5,429.5C 236.84,430.333 200.173,430.667 163.5,430.5 Z"/></g>
<g><path style="opacity:1" fill="#f4f3f5" d="M 162.5,407.5 C 162.833,407.5 163.167,407.5 163.5,407.5C 163.5,414.833 163.5,422.167 163.5,429.5C 161.5,429.5 159.5,429.5 157.5,429.5C 157.5,422.167 157.5,414.833 157.5,407.5C 159.167,407.5 160.833,407.5 162.5,407.5 Z"/></g>
<g><path style="opacity:1" fill="#5336a6" d="M 164.5,407.5 C 192.5,407.5 220.5,407.5 248.5,407.5C 248.5,414.833 248.5,422.167 248.5,429.5C 220.833,429.5 193.167,429.5 165.5,429.5C 165.582,422.142 165.248,414.809 164.5,407.5 Z"/></g>
<g><path style="opacity:1" fill="#9da5bd" d="M 162.5,407.5 C 160.833,407.5 159.167,407.5 157.5,407.5C 157.5,414.833 157.5,422.167 157.5,429.5C 157.167,429.5 156.833,429.5 156.5,429.5C 156.5,421.833 156.5,414.167 156.5,406.5C 158.735,406.205 160.735,406.539 162.5,407.5 Z"/></g>
<g><path style="opacity:1" fill="#feae8f" d="M 14.5,421.5 C 42.8353,421.333 71.1686,421.5 99.5,422C 109.902,424.735 116.736,431.235 120,441.5C 122.122,458.44 114.956,468.94 98.5,473C 75.169,473.5 51.8357,473.667 28.5,473.5C 17.9271,457.884 13.2604,440.55 14.5,421.5 Z"/></g>
<g><path style="opacity:1" fill="#d0dbec" d="M 294.5,420.5 C 349.834,420.333 405.168,420.5 460.5,421C 465.021,422.609 466.354,425.443 464.5,429.5C 407.833,429.5 351.167,429.5 294.5,429.5C 294.5,426.5 294.5,423.5 294.5,420.5 Z"/></g>
<g><path style="opacity:1" fill="#626082" d="M 156.5,429.5 C 156.833,429.5 157.167,429.5 157.5,429.5C 159.5,429.5 161.5,429.5 163.5,429.5C 163.5,429.833 163.5,430.167 163.5,430.5C 163.5,430.833 163.5,431.167 163.5,431.5C 162.833,431.5 162.5,431.833 162.5,432.5C 160.167,432.5 157.833,432.5 155.5,432.5C 156.11,431.609 156.443,430.609 156.5,429.5 Z"/></g>
<g><path style="opacity:1" fill="#fbfcfb" d="M 471.5,487.5 C 470.5,488.167 469.5,488.833 468.5,489.5C 467.503,470.007 467.17,450.34 467.5,430.5C 468.833,430.5 470.167,430.5 471.5,430.5C 471.5,449.5 471.5,468.5 471.5,487.5 Z"/></g>
<g><path style="opacity:1" fill="#df6c58" d="M 162.5,432.5 C 162.5,431.833 162.833,431.5 163.5,431.5C 192.833,431.5 222.167,431.5 251.5,431.5C 251.5,432.167 251.5,432.833 251.5,433.5C 221.76,433.825 192.093,433.492 162.5,432.5 Z"/></g>
<g><path style="opacity:1" fill="#443a63" d="M 356.5,431.5 C 364.5,431.5 372.5,431.5 380.5,431.5C 380.783,432.289 381.283,432.956 382,433.5C 382.499,439.157 382.666,444.824 382.5,450.5C 382.167,450.5 381.833,450.5 381.5,450.5C 381.5,450.167 381.5,449.833 381.5,449.5C 381.5,444.5 381.5,439.5 381.5,434.5C 352.833,434.5 324.167,434.5 295.5,434.5C 315.646,432.837 335.979,431.837 356.5,431.5 Z"/></g>
<g><path style="opacity:1" fill="#f4f2f1" d="M 155.5,432.5 C 157.833,432.5 160.167,432.5 162.5,432.5C 162.5,457.167 162.5,481.833 162.5,506.5C 160.5,506.5 158.5,506.5 156.5,506.5C 156.737,505.209 156.404,504.209 155.5,503.5C 155.5,479.833 155.5,456.167 155.5,432.5 Z"/></g>
<g><path style="opacity:1" fill="#c088b7" d="M 251.5,431.5 C 259.5,431.5 267.5,431.5 275.5,431.5C 275.5,456.5 275.5,481.5 275.5,506.5C 267.5,506.5 259.5,506.5 251.5,506.5C 251.5,482.167 251.5,457.833 251.5,433.5C 251.5,432.833 251.5,432.167 251.5,431.5 Z"/></g>
<g><path style="opacity:1" fill="#201e5a" d="M 380.5,431.5 C 389.833,431.5 399.167,431.5 408.5,431.5C 408.672,432.492 408.338,433.158 407.5,433.5C 405.5,433.5 403.5,433.5 401.5,433.5C 401.5,457.833 401.5,482.167 401.5,506.5C 401.167,506.5 400.833,506.5 400.5,506.5C 400.5,486.167 400.5,465.833 400.5,445.5C 398.418,445.472 396.584,446.139 395,447.5C 394.667,452.833 394.333,458.167 394,463.5C 392.989,464.337 391.822,464.67 390.5,464.5C 390.192,458.575 390.525,452.741 391.5,447C 390.207,446.51 388.873,446.343 387.5,446.5C 387.161,471.799 386.161,471.799 384.5,446.5C 383.5,466.489 383.167,486.489 383.5,506.5C 383.167,506.5 382.833,506.5 382.5,506.5C 382.5,487.833 382.5,469.167 382.5,450.5C 382.666,444.824 382.499,439.157 382,433.5C 381.283,432.956 380.783,432.289 380.5,431.5 Z"/></g>
<g><path style="opacity:1" fill="#201d61" d="M 295.5,434.5 C 324.167,434.5 352.833,434.5 381.5,434.5C 381.5,439.5 381.5,444.5 381.5,449.5C 361.833,449.5 342.167,449.5 322.5,449.5C 313.682,448.507 304.682,448.173 295.5,448.5C 295.5,443.833 295.5,439.167 295.5,434.5 Z"/></g>
<g><path style="opacity:1" fill="#eef3f8" d="M 406.5,434.5 C 408.607,435.468 410.941,435.802 413.5,435.5C 413.5,436.167 413.5,436.833 413.5,437.5C 413.5,460.5 413.5,483.5 413.5,506.5C 409.833,506.5 406.167,506.5 402.5,506.5C 402.5,482.5 402.5,458.5 402.5,434.5C 403.833,434.5 405.167,434.5 406.5,434.5 Z"/></g>
<g><path style="opacity:1" fill="#b9cfe3" d="M 413.5,435.5 C 423.833,435.5 434.167,435.5 444.5,435.5C 444.5,440.833 444.5,446.167 444.5,451.5C 434.5,451.5 424.5,451.5 414.5,451.5C 414.819,446.637 414.486,441.97 413.5,437.5C 413.5,436.833 413.5,436.167 413.5,435.5 Z"/></g>
<g><path style="opacity:1" fill="#fead8f" d="M 162.5,432.5 C 192.093,433.492 221.76,433.825 251.5,433.5C 251.5,457.833 251.5,482.167 251.5,506.5C 221.833,506.5 192.167,506.5 162.5,506.5C 162.5,481.833 162.5,457.167 162.5,432.5 Z"/></g>
<g><path style="opacity:1" fill="#1e1d61" d="M 446.5,431.5 C 452.167,431.5 457.833,431.5 463.5,431.5C 463.5,452.167 463.5,472.833 463.5,493.5C 462.833,473.329 462.167,452.996 461.5,432.5C 460.467,453.477 459.633,474.81 459,496.5C 456.765,498.202 454.265,499.202 451.5,499.5C 451.833,481.821 451.5,464.154 450.5,446.5C 449.833,464.833 449.167,483.167 448.5,501.5C 447.252,480.832 447.252,460.166 448.5,439.5C 448.379,436.559 447.713,433.892 446.5,431.5 Z"/></g>
<g><path style="opacity:1" fill="#2f2656" d="M 294.5,431.5 C 315.167,431.5 335.833,431.5 356.5,431.5C 335.979,431.837 315.646,432.837 295.5,434.5C 295.5,439.167 295.5,443.833 295.5,448.5C 304.682,448.173 313.682,448.507 322.5,449.5C 313.167,449.5 303.833,449.5 294.5,449.5C 294.5,468.5 294.5,487.5 294.5,506.5C 294.167,506.5 293.833,506.5 293.5,506.5C 293.186,481.455 293.519,456.455 294.5,431.5 Z"/></g>
<g><path style="opacity:1" fill="#1e1b63" d="M 400.5,506.5 C 394.833,506.5 389.167,506.5 383.5,506.5C 383.167,486.489 383.5,466.489 384.5,446.5C 386.161,471.799 387.161,471.799 387.5,446.5C 388.873,446.343 390.207,446.51 391.5,447C 390.525,452.741 390.192,458.575 390.5,464.5C 391.822,464.67 392.989,464.337 394,463.5C 394.333,458.167 394.667,452.833 395,447.5C 396.584,446.139 398.418,445.472 400.5,445.5C 400.5,465.833 400.5,486.167 400.5,506.5 Z"/></g>
<g><path style="opacity:1" fill="#e8ecf4" d="M 381.5,450.5 C 381.833,450.5 382.167,450.5 382.5,450.5C 382.5,469.167 382.5,487.833 382.5,506.5C 382.167,506.5 381.833,506.5 381.5,506.5C 381.5,495.5 381.5,484.5 381.5,473.5C 353.167,473.5 324.833,473.5 296.5,473.5C 296.827,483.348 296.494,493.014 295.5,502.5C 295.5,485.167 295.5,467.833 295.5,450.5C 324.167,450.5 352.833,450.5 381.5,450.5 Z"/></g>
<g><path style="opacity:1" fill="#0e1649" d="M 463.5,431.5 C 465.488,451.139 466.155,471.139 465.5,491.5C 465.167,492.5 464.5,493.167 463.5,493.5C 463.5,472.833 463.5,452.167 463.5,431.5 Z"/></g>
<g><path style="opacity:1" fill="#8b919f" d="M 407.5,433.5 C 407.5,433.833 407.5,434.167 407.5,434.5C 407.167,434.5 406.833,434.5 406.5,434.5C 405.167,434.5 403.833,434.5 402.5,434.5C 402.5,458.5 402.5,482.5 402.5,506.5C 402.167,506.5 401.833,506.5 401.5,506.5C 401.5,482.167 401.5,457.833 401.5,433.5C 403.5,433.5 405.5,433.5 407.5,433.5 Z"/></g>
<g><path style="opacity:1" fill="#747a97" d="M 292.5,430.5 C 349.833,430.5 407.167,430.5 464.5,430.5C 466.163,450.312 467.163,470.312 467.5,490.5C 467.158,491.338 466.492,491.672 465.5,491.5C 466.155,471.139 465.488,451.139 463.5,431.5C 457.833,431.5 452.167,431.5 446.5,431.5C 433.833,431.5 421.167,431.5 408.5,431.5C 399.167,431.5 389.833,431.5 380.5,431.5C 372.5,431.5 364.5,431.5 356.5,431.5C 335.833,431.5 315.167,431.5 294.5,431.5C 293.508,431.672 292.842,431.338 292.5,430.5 Z"/></g>
<g><path style="opacity:1" fill="#aeb3e0" d="M 406.5,434.5 C 406.833,434.5 407.167,434.5 407.5,434.5C 420.167,434.5 432.833,434.5 445.5,434.5C 445.831,457.339 445.497,480.006 444.5,502.5C 444.5,485.5 444.5,468.5 444.5,451.5C 444.5,446.167 444.5,440.833 444.5,435.5C 434.167,435.5 423.833,435.5 413.5,435.5C 410.941,435.802 408.607,435.468 406.5,434.5 Z"/></g>
<g><path style="opacity:1" fill="#cddaeb" d="M 413.5,437.5 C 414.486,441.97 414.819,446.637 414.5,451.5C 424.5,451.5 434.5,451.5 444.5,451.5C 444.5,468.5 444.5,485.5 444.5,502.5C 434.481,505.859 424.148,507.192 413.5,506.5C 413.5,483.5 413.5,460.5 413.5,437.5 Z"/></g>
<g><path style="opacity:1" fill="#92899e" d="M 322.5,449.5 C 342.167,449.5 361.833,449.5 381.5,449.5C 381.5,449.833 381.5,450.167 381.5,450.5C 352.833,450.5 324.167,450.5 295.5,450.5C 295.5,467.833 295.5,485.167 295.5,502.5C 295.5,503.833 295.5,505.167 295.5,506.5C 295.167,506.5 294.833,506.5 294.5,506.5C 294.5,487.5 294.5,468.5 294.5,449.5C 303.833,449.5 313.167,449.5 322.5,449.5 Z"/></g>
<g><path style="opacity:1" fill="#fefefe" d="M 381.5,506.5 C 352.833,506.5 324.167,506.5 295.5,506.5C 295.5,505.167 295.5,503.833 295.5,502.5C 296.494,493.014 296.827,483.348 296.5,473.5C 324.833,473.5 353.167,473.5 381.5,473.5C 381.5,484.5 381.5,495.5 381.5,506.5 Z"/></g>
</svg>
